<?xml version="1.0" standalone="no"?><!-- Generator: Gravit.io --><svg xmlns="http://www.w3.org/2000/svg" xmlns:xlink="http://www.w3.org/1999/xlink" style="isolation:isolate" viewBox="261.686 11.547 647.119 624.678" width="647.119" height="624.678"><path d=" M 420.094 496.568 L 426.222 495.294 L 564.222 574.627 L 560 577.319 L 420.094 496.568 Z " fill="rgb(57,57,57)" fill-opacity="0.3"/><path d=" M 360 531.131 L 360 533.225 L 500 614.054 L 560 579.413 L 560 577.319 L 500 611.96 L 360 531.131 Z " fill="rgb(191,191,191)"/><path d=" M 720 513.068 L 860 432.239 L 898.141 409.807 C 912.413 401.413 912.352 387.888 898.005 379.623 L 680 254.034 L 680 508.068 L 720 513.068 Z " fill="rgb(0,0,0)" fill-opacity="0.3"/><path d=" M 450 150.111 L 462.262 142.485 C 469.292 138.114 480.825 137.917 488 142.047 L 715 272.709 C 729.35 280.969 741 301.118 741 317.675 L 741 491.521 C 741 497.04 737.09 503.709 732.273 506.404 L 715 516.068 L 720.305 325.212 C 720.689 311.42 711.201 294.794 699.131 288.108 L 450 150.111 Z " fill="rgb(219,219,219)"/><path d=" M 603 463.427 L 597 459.88 L 600 496.068 L 606 492.615 L 603 463.427 Z " fill="rgb(191,191,191)"/><path d=" M 540.042 461.333 L 510.042 479.427 L 570 514.068 L 600.125 496.083 L 540.042 461.333 Z " fill="rgb(240,240,240)"/><path d=" M 547.5 429.868 L 540 461.355 L 600 495.996 L 597 458.355 L 547.5 429.868 Z " fill="rgb(219,219,219)"/><path d=" M 465.981 153.564 L 702.679 290.222 C 712.239 295.741 720 309.184 720 320.222 L 720 484.974 L 440 323.316 L 440 168.564 C 440 152.007 451.642 145.285 465.981 153.564 Z " fill="rgb(57,57,57)"/><linearGradient id="_lgradient_0" x1="0" y1="0.5" x2="1" y2="0.5" gradientTransform="matrix(240,0,0,277.128,459.813,172.955)" gradientUnits="userSpaceOnUse"><stop offset="2.608695652173913%" stop-opacity="1" style="stop-color:rgb(153,153,225)"/><stop offset="47.82608695652174%" stop-opacity="1" style="stop-color:rgb(221,180,221)"/></linearGradient><path d=" M 459.813 172.955 L 459.813 311.519 L 699.813 450.083 L 699.813 311.519 L 459.813 172.955 Z " fill="url(#_lgradient_0)"/><path d=" M 480 195.846 L 480 311.222 L 680 426.692 L 680 310.316 L 480 195.846 Z " fill="rgb(74,74,74)"/><path d=" M 440 323.316 L 440 339.504 C 440 356.062 451.642 376.225 465.981 384.504 L 694.019 516.162 C 708.358 524.441 720 517.72 720 501.162 L 720 484.974 L 440 323.316 Z " fill="rgb(240,240,240)"/><path d=" M 480 195.752 L 480 207.846 L 680 323.316 L 680 310.222 L 480 195.752 Z " fill="rgb(210,209,209)"/><path d=" M 480 207.846 L 480 311.316 L 520 334.41 L 520 230.94 L 480 207.846 Z " fill="rgb(234,234,234)"/><g><path d=" M 483 203.06 L 483 203.06 C 483 204.19 483.896 205.678 485 206.381 L 485 206.381 C 486.104 207.084 487 206.737 487 205.607 L 487 205.607 C 487 204.477 486.104 202.99 485 202.287 L 485 202.287 C 483.896 201.584 483 201.93 483 203.06 Z " fill="rgb(247,63,63)"/><path d=" M 491.75 208.003 L 491.75 208.003 C 491.75 209.132 492.646 210.62 493.75 211.323 L 493.75 211.323 C 494.854 212.026 495.75 211.679 495.75 210.55 L 495.75 210.55 C 495.75 209.42 494.854 207.932 493.75 207.229 L 493.75 207.229 C 492.646 206.526 491.75 206.873 491.75 208.003 Z " fill="rgb(84,185,84)"/><path d=" M 487.375 205.69 L 487.375 205.69 C 487.375 206.82 488.271 208.308 489.375 209.011 L 489.375 209.011 C 490.479 209.713 491.375 209.367 491.375 208.237 L 491.375 208.237 C 491.375 207.107 490.479 205.619 489.375 204.917 L 489.375 204.917 C 488.271 204.214 487.375 204.56 487.375 205.69 Z " fill="rgb(244,173,66)"/></g><g><path d=" M 490.042 226.19 L 510.042 237.737 L 510.042 237.737 L 510.042 237.737 L 510.042 238.784 L 490.042 227.237 L 490.042 226.19 Z " fill="rgb(111,111,111)"/><path d=" M 490.042 229.69 L 510.042 241.237 L 510.042 241.237 L 510.042 241.237 L 510.042 242.284 L 490.042 230.737 L 490.042 229.69 Z " fill="rgb(111,111,111)"/><path d=" M 490.042 233.065 L 510.042 244.612 L 510.042 244.612 L 510.042 244.612 L 510.042 245.659 L 490.042 234.112 L 490.042 233.065 Z " fill="rgb(111,111,111)"/><path d=" M 490.042 236.565 L 510.042 248.112 L 510.042 248.112 L 510.042 248.112 L 510.042 249.159 L 490.042 237.612 L 490.042 236.565 Z " fill="rgb(111,111,111)"/><path d=" M 490.042 240.065 L 510.042 251.612 L 510.042 251.612 L 510.042 251.612 L 510.042 252.659 L 490.042 241.112 L 490.042 240.065 Z " fill="rgb(111,111,111)"/><path d=" M 490.042 243.44 L 510.042 254.987 L 510.042 254.987 L 510.042 254.987 L 510.042 256.034 L 490.042 244.487 L 490.042 243.44 Z " fill="rgb(111,111,111)"/></g><g><path d=" M 539.532 265.833 L 660.245 335.27 L 660.245 339.333 L 539.755 270.144 L 539.532 265.833 Z " fill="rgb(255,255,255)"/><path d=" M 539.477 274.958 L 660.19 344.395 L 660.19 348.458 L 539.7 279.269 L 539.477 274.958 Z " fill="rgb(255,255,255)"/><path d=" M 539.477 302.292 L 660.19 371.729 L 660.19 375.792 L 539.7 306.602 L 539.477 302.292 Z " fill="rgb(255,255,255)"/><path d=" M 539.477 283.833 L 660.19 353.27 L 660.19 357.333 L 539.7 288.144 L 539.477 283.833 Z " fill="rgb(255,255,255)"/><path d=" M 539.477 256.833 L 660.19 326.27 L 660.19 330.333 L 539.7 261.144 L 539.477 256.833 Z " fill="rgb(255,255,255)"/><path d=" M 539.477 311.625 L 660.19 381.062 L 660.19 385.125 L 539.7 315.936 L 539.477 311.625 Z " fill="rgb(255,255,255)"/><path d=" M 539.477 292.958 L 660.19 362.395 L 660.19 366.458 L 539.7 297.269 L 539.477 292.958 Z " fill="rgb(255,255,255)"/></g><path d=" M 510 479.427 L 510 490.521 L 570 525.709 L 570 513.615 L 510 479.427 Z " fill="rgb(219,219,219)"/><path d=" M 570 513.615 L 570 525.709 L 606 505.068 L 606 491.974 L 570 513.615 Z " fill="rgb(191,191,191)"/><path d=" M 420 496.49 L 360 531.131 L 500 611.96 L 560 577.319 L 420 496.49 Z " fill="rgb(219,219,219)"/><path d=" M 486.705 596.714 L 493.47 592.809 C 494.896 591.985 497.207 591.991 498.629 592.821 L 509.29 599.045 C 510.712 599.875 510.718 601.233 509.303 602.075 L 502.678 606.022 C 501.264 606.865 498.962 606.875 497.54 606.044 L 486.698 599.71 C 485.276 598.88 485.28 597.537 486.705 596.714 Z " fill="rgb(191,191,191)"/><path d=" M 465.247 584.146 L 472.012 580.241 C 473.437 579.418 475.749 579.423 477.171 580.253 L 487.832 586.477 C 489.253 587.307 489.259 588.665 487.845 589.508 L 481.22 593.454 C 479.806 594.297 477.503 594.307 476.082 593.476 L 465.239 587.142 C 463.818 586.312 463.821 584.97 465.247 584.146 Z " fill="rgb(191,191,191)"/><path d=" M 465.211 583.9 L 471.976 579.995 C 473.402 579.172 475.713 579.177 477.135 580.007 L 487.796 586.231 C 489.218 587.061 489.224 588.419 487.809 589.262 L 481.184 593.208 C 479.77 594.051 477.468 594.061 476.046 593.23 L 465.204 586.896 C 463.782 586.066 463.786 584.724 465.211 583.9 Z " fill="rgb(240,240,240)"/><path d=" M 486.664 596.376 L 493.428 592.47 C 494.854 591.647 497.166 591.652 498.587 592.482 L 509.248 598.706 C 510.67 599.536 510.676 600.894 509.262 601.737 L 502.637 605.684 C 501.222 606.526 498.92 606.536 497.499 605.706 L 486.656 599.371 C 485.234 598.541 485.238 597.199 486.664 596.376 Z " fill="rgb(240,240,240)"/><path d=" M 392.5 542.062 L 399.265 538.157 C 400.69 537.334 403.002 537.339 404.424 538.169 L 415.085 544.393 C 416.506 545.223 416.512 546.581 415.098 547.424 L 408.473 551.37 C 407.059 552.213 404.757 552.223 403.335 551.392 L 392.492 545.058 C 391.071 544.228 391.074 542.886 392.5 542.062 Z " fill="rgb(191,191,191)"/><path d=" M 371.042 529.495 L 377.806 525.589 C 379.232 524.766 381.544 524.772 382.965 525.602 L 393.626 531.826 C 395.048 532.655 395.054 534.013 393.64 534.856 L 387.015 538.803 C 385.6 539.645 383.298 539.655 381.877 538.825 L 371.034 532.491 C 369.613 531.66 369.616 530.318 371.042 529.495 Z " fill="rgb(191,191,191)"/><path d=" M 414.437 555.04 L 421.537 550.941 C 423.034 550.077 425.461 550.081 426.955 550.95 L 465.098 573.136 C 466.592 574.005 466.603 575.434 465.123 576.327 L 458.252 580.472 C 456.772 581.364 454.358 581.384 452.864 580.515 L 414.433 558.179 C 412.939 557.311 412.941 555.904 414.437 555.04 Z " fill="rgb(191,191,191)"/><path d=" M 414.461 554.745 L 421.562 550.645 C 423.058 549.781 425.486 549.785 426.979 550.654 L 465.122 572.84 C 466.616 573.709 466.627 575.139 465.148 576.031 L 458.276 580.176 C 456.796 581.069 454.382 581.088 452.888 580.22 L 414.457 557.883 C 412.963 557.015 412.965 555.609 414.461 554.745 Z " fill="rgb(240,240,240)"/><path d=" M 371.006 529.249 L 377.771 525.343 C 379.196 524.52 381.508 524.526 382.93 525.356 L 393.591 531.58 C 395.012 532.41 395.018 533.767 393.604 534.61 L 386.979 538.557 C 385.565 539.399 383.263 539.409 381.841 538.579 L 370.998 532.245 C 369.577 531.414 369.58 530.072 371.006 529.249 Z " fill="rgb(240,240,240)"/><path d=" M 390.953 518.46 L 397.718 514.555 C 399.143 513.732 401.458 513.732 402.884 514.555 L 409.649 518.46 C 411.074 519.283 411.074 520.62 409.649 521.443 L 402.884 525.349 C 401.458 526.172 399.143 526.172 397.718 525.349 L 390.953 521.443 C 389.528 520.62 389.528 519.283 390.953 518.46 Z " fill="rgb(191,191,191)"/><path d=" M 390.946 518.189 L 397.711 514.283 C 399.137 513.46 401.452 513.46 402.877 514.283 L 409.642 518.189 C 411.068 519.012 411.068 520.348 409.642 521.171 L 402.877 525.077 C 401.452 525.9 399.137 525.9 397.711 525.077 L 390.946 521.171 C 389.521 520.348 389.521 519.012 390.946 518.189 Z " fill="rgb(240,240,240)"/><path d=" M 510.708 587.371 L 517.473 583.466 C 518.899 582.643 521.214 582.643 522.639 583.466 L 529.404 587.371 C 530.83 588.194 530.83 589.531 529.404 590.354 L 522.639 594.26 C 521.214 595.083 518.899 595.083 517.473 594.26 L 510.708 590.354 C 509.283 589.531 509.283 588.194 510.708 587.371 Z " fill="rgb(191,191,191)"/><path d=" M 510.702 587.1 L 517.466 583.194 C 518.892 582.371 521.207 582.371 522.633 583.194 L 529.397 587.1 C 530.823 587.923 530.823 589.259 529.397 590.082 L 522.633 593.988 C 521.207 594.811 518.892 594.811 517.466 593.988 L 510.702 590.082 C 509.276 589.259 509.276 587.923 510.702 587.1 Z " fill="rgb(240,240,240)"/><path d=" M 491.09 575.858 L 497.855 571.952 C 499.281 571.129 501.596 571.129 503.021 571.952 L 509.786 575.858 C 511.212 576.681 511.212 578.017 509.786 578.84 L 503.021 582.746 C 501.596 583.569 499.281 583.569 497.855 582.746 L 491.09 578.84 C 489.665 578.017 489.665 576.681 491.09 575.858 Z " fill="rgb(191,191,191)"/><path d=" M 491.084 575.586 L 497.848 571.68 C 499.274 570.857 501.589 570.857 503.015 571.68 L 509.779 575.586 C 511.205 576.409 511.205 577.746 509.779 578.569 L 503.015 582.474 C 501.589 583.297 499.274 583.297 497.848 582.474 L 491.084 578.569 C 489.658 577.746 489.658 576.409 491.084 575.586 Z " fill="rgb(240,240,240)"/><path d=" M 450.787 552.782 L 457.552 548.877 C 458.978 548.054 461.293 548.054 462.718 548.877 L 469.483 552.782 C 470.909 553.605 470.909 554.942 469.483 555.765 L 462.718 559.671 C 461.293 560.494 458.978 560.494 457.552 559.671 L 450.787 555.765 C 449.362 554.942 449.362 553.605 450.787 552.782 Z " fill="rgb(191,191,191)"/><path d=" M 450.781 552.511 L 457.545 548.605 C 458.971 547.782 461.286 547.782 462.712 548.605 L 469.476 552.511 C 470.902 553.334 470.902 554.67 469.476 555.493 L 462.712 559.399 C 461.286 560.222 458.971 560.222 457.545 559.399 L 450.781 555.493 C 449.355 554.67 449.355 553.334 450.781 552.511 Z " fill="rgb(240,240,240)"/><path d=" M 430.793 541.145 L 437.557 537.24 C 438.983 536.417 441.298 536.417 442.724 537.24 L 449.488 541.145 C 450.914 541.968 450.914 543.305 449.488 544.128 L 442.724 548.034 C 441.298 548.857 438.983 548.857 437.557 548.034 L 430.793 544.128 C 429.367 543.305 429.367 541.968 430.793 541.145 Z " fill="rgb(191,191,191)"/><path d=" M 430.786 540.874 L 437.551 536.968 C 438.976 536.145 441.291 536.145 442.717 536.968 L 449.482 540.874 C 450.907 541.697 450.907 543.033 449.482 543.856 L 442.717 547.762 C 441.291 548.585 438.976 548.585 437.551 547.762 L 430.786 543.856 C 429.36 543.033 429.36 541.697 430.786 540.874 Z " fill="rgb(240,240,240)"/><path d=" M 410.613 529.443 L 417.378 525.538 C 418.803 524.715 421.118 524.715 422.544 525.538 L 429.309 529.443 C 430.734 530.267 430.734 531.603 429.309 532.426 L 422.544 536.332 C 421.118 537.155 418.803 537.155 417.378 536.332 L 410.613 532.426 C 409.188 531.603 409.188 530.267 410.613 529.443 Z " fill="rgb(191,191,191)"/><path d=" M 410.606 529.172 L 417.371 525.266 C 418.797 524.443 421.112 524.443 422.537 525.266 L 429.302 529.172 C 430.728 529.995 430.728 531.331 429.302 532.154 L 422.537 536.06 C 421.112 536.883 418.797 536.883 417.371 536.06 L 410.606 532.154 C 409.181 531.331 409.181 529.995 410.606 529.172 Z " fill="rgb(240,240,240)"/><path d=" M 430.276 518.431 L 437.041 514.526 C 438.467 513.703 440.782 513.703 442.207 514.526 L 448.972 518.431 C 450.398 519.254 450.398 520.591 448.972 521.414 L 442.207 525.32 C 440.782 526.143 438.467 526.143 437.041 525.32 L 430.276 521.414 C 428.851 520.591 428.851 519.254 430.276 518.431 Z " fill="rgb(191,191,191)"/><path d=" M 430.27 518.16 L 437.034 514.254 C 438.46 513.431 440.775 513.431 442.201 514.254 L 448.965 518.16 C 450.391 518.983 450.391 520.319 448.965 521.142 L 442.201 525.048 C 440.775 525.871 438.46 525.871 437.034 525.048 L 430.27 521.142 C 428.844 520.319 428.844 518.983 430.27 518.16 Z " fill="rgb(240,240,240)"/><path d=" M 530.152 575.475 L 536.917 571.569 C 538.342 570.746 540.657 570.746 542.083 571.569 L 548.847 575.475 C 550.273 576.298 550.273 577.634 548.847 578.458 L 542.083 582.363 C 540.657 583.186 538.342 583.186 536.917 582.363 L 530.152 578.458 C 528.726 577.634 528.726 576.298 530.152 575.475 Z " fill="rgb(191,191,191)"/><path d=" M 530.145 575.203 L 536.91 571.297 C 538.336 570.474 540.65 570.474 542.076 571.297 L 548.841 575.203 C 550.266 576.026 550.266 577.363 548.841 578.186 L 542.076 582.091 C 540.65 582.914 538.336 582.914 536.91 582.091 L 530.145 578.186 C 528.72 577.363 528.72 576.026 530.145 575.203 Z " fill="rgb(240,240,240)"/><path d=" M 510.034 564.211 L 516.799 560.306 C 518.224 559.483 520.539 559.483 521.965 560.306 L 528.729 564.211 C 530.155 565.034 530.155 566.371 528.729 567.194 L 521.965 571.099 C 520.539 571.923 518.224 571.923 516.799 571.099 L 510.034 567.194 C 508.608 566.371 508.608 565.034 510.034 564.211 Z " fill="rgb(191,191,191)"/><path d=" M 510.027 563.939 L 516.792 560.034 C 518.218 559.211 520.532 559.211 521.958 560.034 L 528.723 563.939 C 530.148 564.763 530.148 566.099 528.723 566.922 L 521.958 570.828 C 520.532 571.651 518.218 571.651 516.792 570.828 L 510.027 566.922 C 508.602 566.099 508.602 564.763 510.027 563.939 Z " fill="rgb(240,240,240)"/><path d=" M 470.731 564.386 L 477.496 560.48 C 478.921 559.657 481.236 559.657 482.662 560.48 L 489.426 564.386 C 490.852 565.209 490.852 566.546 489.426 567.369 L 482.662 571.274 C 481.236 572.097 478.921 572.097 477.496 571.274 L 470.731 567.369 C 469.305 566.546 469.305 565.209 470.731 564.386 Z " fill="rgb(191,191,191)"/><path d=" M 470.724 564.114 L 477.489 560.209 C 478.914 559.385 481.229 559.385 482.655 560.209 L 489.42 564.114 C 490.845 564.937 490.845 566.274 489.42 567.097 L 482.655 571.002 C 481.229 571.826 478.914 571.826 477.489 571.002 L 470.724 567.097 C 469.299 566.274 469.299 564.937 470.724 564.114 Z " fill="rgb(240,240,240)"/><path d=" M 489.986 552.749 L 496.751 548.843 C 498.177 548.02 500.491 548.02 501.917 548.843 L 508.682 552.749 C 510.107 553.572 510.107 554.909 508.682 555.732 L 501.917 559.637 C 500.491 560.46 498.177 560.46 496.751 559.637 L 489.986 555.732 C 488.561 554.909 488.561 553.572 489.986 552.749 Z " fill="rgb(191,191,191)"/><path d=" M 489.98 552.477 L 496.744 548.572 C 498.17 547.748 500.485 547.748 501.91 548.572 L 508.675 552.477 C 510.101 553.3 510.101 554.637 508.675 555.46 L 501.91 559.365 C 500.485 560.189 498.17 560.189 496.744 559.365 L 489.98 555.46 C 488.554 554.637 488.554 553.3 489.98 552.477 Z " fill="rgb(240,240,240)"/><path d=" M 470.057 541.297 L 476.821 537.391 C 478.247 536.568 480.562 536.568 481.987 537.391 L 488.752 541.297 C 490.178 542.12 490.178 543.457 488.752 544.28 L 481.987 548.185 C 480.562 549.008 478.247 549.008 476.821 548.185 L 470.057 544.28 C 468.631 543.457 468.631 542.12 470.057 541.297 Z " fill="rgb(191,191,191)"/><path d=" M 470.05 541.025 L 476.815 537.12 C 478.24 536.297 480.555 536.297 481.981 537.12 L 488.745 541.025 C 490.171 541.848 490.171 543.185 488.745 544.008 L 481.981 547.914 C 480.555 548.737 478.24 548.737 476.815 547.914 L 470.05 544.008 C 468.624 543.185 468.624 541.848 470.05 541.025 Z " fill="rgb(240,240,240)"/><path d=" M 450.155 530.095 L 456.919 526.189 C 458.345 525.366 460.66 525.366 462.085 526.189 L 468.85 530.095 C 470.276 530.918 470.276 532.255 468.85 533.078 L 462.085 536.983 C 460.66 537.806 458.345 537.806 456.919 536.983 L 450.155 533.078 C 448.729 532.255 448.729 530.918 450.155 530.095 Z " fill="rgb(191,191,191)"/><path d=" M 450.148 529.823 L 456.913 525.918 C 458.338 525.095 460.653 525.095 462.079 525.918 L 468.843 529.823 C 470.269 530.646 470.269 531.983 468.843 532.806 L 462.079 536.712 C 460.653 537.535 458.338 537.535 456.913 536.712 L 450.148 532.806 C 448.722 531.983 448.722 530.646 450.148 529.823 Z " fill="rgb(240,240,240)"/><path d=" M 556.722 611.053 L 556.722 611.053 C 561.447 610.745 566.795 611.056 568.658 611.746 L 568.658 611.746 C 570.52 612.436 571.518 615.522 570.884 618.633 L 570.884 618.633 C 570.25 621.744 573.887 622.586 579.002 620.512 L 582.968 618.904 C 588.083 616.83 588.65 613.076 584.235 610.527 L 584.235 610.527 C 577.612 606.703 565.858 605.721 558.003 608.335 L 557.651 608.453 C 552.414 610.195 551.998 611.361 556.722 611.053 Z " fill="rgb(57,57,57)" fill-opacity="0.3"/><path d=" M 538 619.716 L 536.594 621.047 C 532.587 624.842 533.214 630.163 537.994 632.923 L 540.673 634.47 C 545.453 637.23 552.835 636.674 557.149 633.231 L 559.018 631.739 C 563.331 628.295 570.986 623.816 576.1 621.742 L 580.066 620.134 C 585.181 618.06 585.749 614.306 581.333 611.757 L 581.333 611.757 C 574.71 607.933 562.956 606.951 555.101 609.566 L 554.749 609.683 C 549.512 611.426 542.007 615.922 538 619.716 Z " fill="rgb(240,240,240)"/><path d=" M 410.345 506.785 L 417.11 502.879 C 418.535 502.056 420.85 502.056 422.276 502.879 L 429.04 506.785 C 430.466 507.608 430.466 508.944 429.04 509.768 L 422.276 513.673 C 420.85 514.496 418.535 514.496 417.11 513.673 L 410.345 509.768 C 408.919 508.944 408.919 507.608 410.345 506.785 Z " fill="rgb(191,191,191)"/><path d=" M 410.338 506.513 L 417.103 502.608 C 418.529 501.784 420.843 501.784 422.269 502.608 L 429.034 506.513 C 430.459 507.336 430.459 508.673 429.034 509.496 L 422.269 513.401 C 420.843 514.225 418.529 514.225 417.103 513.401 L 410.338 509.496 C 408.913 508.673 408.913 507.336 410.338 506.513 Z " fill="rgb(240,240,240)"/><path d=" M 392.458 541.724 L 399.223 537.818 C 400.649 536.995 402.96 537.001 404.382 537.831 L 415.043 544.055 C 416.465 544.885 416.471 546.243 415.056 547.085 L 408.431 551.032 C 407.017 551.874 404.715 551.884 403.293 551.054 L 392.451 544.72 C 391.029 543.889 391.033 542.547 392.458 541.724 Z " fill="rgb(240,240,240)"/><path d=" M 440 73.376 L 440 44.094 C 440 33.056 447.761 28.575 457.321 34.094 L 582.679 106.47 C 592.239 111.989 600 125.432 600 136.47 L 600 165.752 C 600 176.79 592.239 181.271 582.679 175.752 L 457.321 103.376 C 447.761 97.857 440 84.414 440 73.376 Z " fill="rgb(0,0,0)" fill-opacity="0.3"/><g transform="matrix(0.866,0.5,-0.5,0.866,499.545,43.197)"><text transform="matrix(1,0,0,1,0,64.131)" style="font-family:&quot;Open Sans&quot;;font-weight:700;font-size:60px;font-style:normal;fill:#4a4a4a;stroke:none;">&lt;/&gt;</text></g><path d=" M 620 177.258 L 620 147.976 C 620 136.938 627.761 132.457 637.321 137.976 L 762.679 210.352 C 772.239 215.871 780 229.314 780 240.352 L 780 269.634 C 780 280.672 772.239 285.153 762.679 279.634 L 637.321 207.258 C 627.761 201.739 620 188.296 620 177.258 Z " fill="rgb(0,0,0)" fill-opacity="0.3"/><path d=" M 628.703 170.213 L 672.432 170.213 L 677.898 179.681 L 634.169 179.681 L 628.703 170.213 Z " fill="rgb(74,74,74)"/><path d=" M 666.966 179.681 L 688.83 217.551 L 699.762 217.551 L 677.898 179.681 L 677.898 179.681 L 677.898 179.681 L 677.898 179.681 L 666.966 179.681 Z " fill="rgb(74,74,74)"/><path d=" M 694.049 207.941 L 748.71 207.941 L 754.176 217.408 L 699.515 217.408 L 694.049 207.941 Z " fill="rgb(74,74,74)"/><path d=" M 742.67 217.077 L 753.602 217.077 L 770 245.479 L 759.068 245.479 L 742.67 217.077 Z " fill="rgb(74,74,74)"/><path d=" M 262.354 53.192 L 262.354 23.91 C 262.354 12.871 270.115 8.39 279.674 13.91 L 405.033 86.286 C 414.593 91.805 422.354 105.247 422.354 116.286 L 422.354 145.568 C 422.354 156.606 414.593 161.087 405.033 155.568 L 279.674 83.192 C 270.115 77.673 262.354 64.23 262.354 53.192 Z " fill="rgb(0,0,0)" fill-opacity="0.3"/><path d=" M 308.431 76.05 L 315.385 88.094 L 298 82.072 L 308.431 76.05 Z " fill="rgb(74,74,74)"/><path d=" M 315.385 76.05 L 322.339 88.094 L 377.97 88.094 L 371.016 76.05 L 315.385 76.05 Z " fill="rgb(74,74,74)"/><path d=" M 261.686 152.295 L 261.686 123.013 C 261.686 111.975 269.447 107.494 279.006 113.013 L 404.365 185.389 C 413.925 190.909 421.686 204.351 421.686 215.389 L 421.686 244.671 C 421.686 255.71 413.925 260.191 404.365 254.671 L 279.006 182.295 C 269.447 176.776 261.686 163.334 261.686 152.295 Z " fill="rgb(0,0,0)" fill-opacity="0.3"/><path d=" M 262.354 248.45 L 262.354 219.167 C 262.354 208.129 270.115 203.648 279.674 209.167 L 405.033 281.544 C 414.593 287.063 422.354 300.505 422.354 311.544 L 422.354 340.826 C 422.354 351.864 414.593 356.345 405.033 350.826 L 279.674 278.45 C 270.115 272.93 262.354 259.488 262.354 248.45 Z " fill="rgb(0,0,0)" fill-opacity="0.3"/><path d=" M 297.426 177.7 L 303.87 188.861 L 342.531 188.861 L 336.087 177.7 L 297.426 177.7 Z " fill="rgb(74,74,74)"/><path d=" M 329.644 166.54 C 324.477 175.489 339.148 194.348 348.974 200.021 Q 358.801 205.695 377.97 194.441 L 374.748 188.861 L 355.418 188.861 L 348.974 177.7 L 368.305 177.7 L 365.083 172.12 Q 334.81 157.591 329.644 166.54 Z " fill="rgb(74,74,74)"/><path d=" M 297.97 276.666 L 302.97 285.327 L 352.97 285.327 L 347.97 276.666 L 297.97 276.666 Z " fill="rgb(74,74,74)"/><path d=" M 342.97 268.006 L 357.97 293.987 L 377.97 276.666 L 342.97 268.006 Z " fill="rgb(74,74,74)"/></svg>